<?xml version="1.0" encoding="utf-8"?>
<!-- Generator: Adobe Illustrator 16.0.0, SVG Export Plug-In . SVG Version: 6.00 Build 0)  -->
<!DOCTYPE svg PUBLIC "-//W3C//DTD SVG 1.1//EN" "http://www.w3.org/Graphics/SVG/1.1/DTD/svg11.dtd">
<svg version="1.1" id="Layer_1" xmlns="http://www.w3.org/2000/svg" xmlns:xlink="http://www.w3.org/1999/xlink" x="0px" y="0px"
	 width="24px" height="24px" viewBox="0 0 24 24" enable-background="new 0 0 24 24" xml:space="preserve">
<g>
	<path fill="#D5DDDF" d="M16.685,0.676H7.27c-0.9,0-1.627,0.73-1.627,1.631v19.115c0,0.897,0.727,1.629,1.627,1.629h9.415
		c0.899,0,1.629-0.73,1.629-1.629V2.307C18.312,1.406,17.584,0.676,16.685,0.676z M17.093,18.055H6.863V4.593h10.23V18.055z
		 M14.254,2.661H8.718V2.058h5.537L14.254,2.661L14.254,2.661z M16.527,2.362c0,0.368-0.301,0.665-0.669,0.665
		c-0.365,0-0.666-0.299-0.666-0.665c0-0.367,0.301-0.667,0.666-0.667C16.229,1.695,16.527,1.994,16.527,2.362z"/>
</g>
<path fill="#FFFFFF" d="M13.25,20.291c0,0.714-0.578,1.292-1.292,1.292l0,0c-0.713,0-1.292-0.578-1.292-1.292l0,0
	c0-0.713,0.578-1.291,1.292-1.291l0,0C12.672,19,13.25,19.578,13.25,20.291L13.25,20.291z"/>
</svg>
