<?xml version="1.0" encoding="UTF-8" standalone="no"?>
<svg width="353px" height="100px" viewBox="0 0 353 100" version="1.1" xmlns="http://www.w3.org/2000/svg" xmlns:xlink="http://www.w3.org/1999/xlink">
    <!-- Generator: Sketch 3.8.3 (29802) - http://www.bohemiancoding.com/sketch -->
    <title>v1w copy 7</title>
    <desc>Created with Sketch.</desc>
    <defs></defs>
    <g id="Page-1" stroke="none" stroke-width="1" fill="none" fill-rule="evenodd">
        <g id="v1w-copy-7">
            <path d="M329.851562,75.5625 L335.414062,75.5625 L335.414062,99 L329.820312,99 L329.820312,96.5 C329.38281,97.6041722 328.880211,98.3437481 328.3125,98.71875 C327.744789,99.0937519 327.044275,99.28125 326.210938,99.28125 C325.419267,99.28125 324.736982,99.1640637 324.164062,98.9296875 C323.591143,98.6953113 323.143231,98.3984393 322.820312,98.0390625 C322.497394,97.6796857 322.244793,97.2109404 322.0625,96.6328125 C321.880207,96.0546846 321.763021,95.4947944 321.710938,94.953125 C321.658854,94.4114556 321.632812,93.7656287 321.632812,93.015625 L321.632812,75.5625 L327.257812,75.5625 L327.257812,91.890625 C327.257812,93.0781309 327.328124,93.8723938 327.46875,94.2734375 C327.609376,94.6744812 327.955726,94.875 328.507812,94.875 C328.716147,94.875 328.901041,94.8359379 329.0625,94.7578125 C329.223959,94.6796871 329.348958,94.5572925 329.4375,94.390625 C329.526042,94.2239575 329.598958,94.0625008 329.65625,93.90625 C329.713542,93.7499992 329.752604,93.5442721 329.773438,93.2890625 C329.794271,93.0338529 329.807292,92.8333341 329.8125,92.6875 C329.817708,92.5416659 329.820312,92.338543 329.820312,92.078125 L329.820312,91.890625 L329.851562,75.5625 Z M338.039062,99 L338.039062,71.359375 L343.570312,71.359375 L343.570312,83.640625 L346.257812,75.5625 L352.054688,75.5625 L348.539062,85.75 L353.007812,99 L347.054688,99 L343.570312,87.953125 L343.570312,99 L338.039062,99 Z" id="uk" fill="#F3F3F3"></path>
            <path d="M26.756,38.648 L19.14,38.648 L17.668,51 L8.516,51 L8.516,49.592 L9.86,38.648 L2.692,38.648 L3.716,29.752 L10.948,29.752 L11.78,23.032 L3.972,23.032 L4.996,14.136 L12.932,14.136 L14.532,1.208 L23.62,1.208 L23.62,2.616 L22.148,14.136 L29.828,14.136 L31.428,1.208 L40.516,1.208 L40.516,2.616 L39.044,14.136 L46.724,14.136 L45.7,23.032 L37.956,23.032 L37.124,29.752 L45.444,29.752 L44.42,38.648 L36.036,38.648 L34.564,51 L25.412,51 L25.412,49.592 L26.756,38.648 Z M20.228,29.752 L27.844,29.752 L28.676,23.032 L21.06,23.032 L20.228,29.752 Z M49.924,1.208 L76.548,1.208 C79.8333498,1.208 82.8946525,1.62399584 85.732,2.456 C88.5693475,3.28800416 91.0333229,4.68532352 93.124,6.648 C95.2146771,8.61067648 96.8573274,11.1813174 98.052,14.36 C99.2466726,17.5386826 99.844,21.4533101 99.844,26.104 C99.844,30.7973568 99.2466726,34.7226509 98.052,37.88 C96.8573274,41.0373491 95.2146771,43.5973235 93.124,45.56 C91.0333229,47.5226765 88.5693475,48.9199958 85.732,49.752 C82.8946525,50.5840042 79.8333498,51 76.548,51 L49.924,51 L49.924,40.504 L53.764,40.504 L53.764,11.768 L49.924,11.768 L49.924,1.208 Z M75.396,40.504 C76.8466739,40.504 77.934663,40.1306704 78.66,39.384 C79.385337,38.6373296 79.748,37.4320083 79.748,35.768 L79.748,16.44 C79.748,14.7759917 79.3640038,13.5706704 78.596,12.824 C77.8279962,12.0773296 76.7613402,11.704 75.396,11.704 L71.684,11.704 L71.684,40.504 L75.396,40.504 Z M122.836,14.52 C126.12135,14.52 128.851989,14.9999952 131.028,15.96 C133.204011,16.9200048 134.953327,18.1679923 136.276,19.704 C137.598673,21.2400077 138.526664,22.9893235 139.06,24.952 C139.593336,26.9146765 139.86,28.8986566 139.86,30.904 L139.86,35.512 L119.124,35.512 L119.124,35.896 C119.124,37.4320077 119.561329,38.5839962 120.436,39.352 C121.310671,40.1200038 122.899988,40.504 125.204,40.504 C128.020014,40.504 130.601322,40.2906688 132.948,39.864 C135.294678,39.4373312 137.235992,38.9680026 138.772,38.456 L138.772,48.696 C138.003996,49.0800019 137.118672,49.4533315 136.116,49.816 C135.113328,50.1786685 133.972006,50.5199984 132.692,50.84 C131.411994,51.1600016 129.961341,51.415999 128.34,51.608 C126.718659,51.800001 124.88401,51.896 122.836,51.896 C119.891985,51.896 117.225345,51.5120038 114.836,50.744 C112.446655,49.9759962 110.409342,48.8133411 108.724,47.256 C107.038658,45.6986589 105.748004,43.757345 104.852,41.432 C103.955996,39.106655 103.508,36.3653491 103.508,33.208 C103.508,30.0933178 103.955996,27.3626784 104.852,25.016 C105.748004,22.6693216 107.038658,20.7173411 108.724,19.16 C110.409342,17.6026589 112.446655,16.4400038 114.836,15.672 C117.225345,14.9039962 119.891985,14.52 122.836,14.52 L122.836,14.52 Z M122.836,25.912 C121.59866,25.912 120.67067,26.2319968 120.052,26.872 C119.43333,27.5120032 119.124,28.5573261 119.124,30.008 L119.124,30.392 L126.548,30.392 L126.548,30.008 C126.548,28.5573261 126.23867,27.5120032 125.62,26.872 C125.00133,26.2319968 124.07334,25.912 122.836,25.912 L122.836,25.912 Z M160.850006,15.4199982 L160.850006,25.912 L158.970001,25.912 L163.428,40.504 L164.068,40.504 L168.519989,25.912 L166.640015,25.912 L166.640015,15.416 L183.46,15.416 L183.46,25.912 L180.708,25.912 L174.052,51 L152.42,51 L145.572,25.912 L142.884,25.912 L142.884,15.416 L160.850006,15.4199982 Z" id="#Dev" fill="#F3F3F3"></path>
            <path d="M200,1 L248.128,1 L248.128,16.488 L237.12,16.488 L237.12,11.496 L233.024,11.496 L233.024,40.296 L237.504,40.296 L237.504,50.792 L210.624,50.792 L210.624,40.296 L215.104,40.296 L215.104,11.496 L211.008,11.496 L211.008,16.488 L200,16.488 L200,1 Z M267.944,41.296 L270.76,41.296 L270.759999,50.7899511 L250.408,50.7899511 L250.408,41.296 L253.224,41.296 L253.224,26.704 L250.408,26.704 L250.408,16.208 L267.944,16.208 L267.944,41.296 Z M254.76,1 L266.536,1 L266.536,11.688 L254.76,11.688 L254.76,1 Z M189,40 L200.776,40 L200.776,50.688 L189,50.688 L189,40 Z M297.288,66 L275.336,66 L275.336,55.504 L278.152,55.504 L278.152,26.704 L275.336,26.704 L275.336,16.208 L292.872,16.208 L292.872,20.56 C293.256002,20.0479974 293.75733,19.4826698 294.376,18.864 C294.99467,18.2453302 295.730662,17.6800026 296.584,17.168 C297.437338,16.6559974 298.375995,16.2186685 299.4,15.856 C300.424005,15.4933315 301.55466,15.312 302.792,15.312 C307.229356,15.312 310.525323,16.9439837 312.68,20.208 C314.834677,23.4720163 315.912,28.0693037 315.912,34 C315.912,39.9306963 314.834677,44.5279837 312.68,47.792 C310.525323,51.0560163 307.229356,52.688 302.792,52.688 C301.55466,52.688 300.424005,52.5066685 299.4,52.144 C298.375995,51.7813315 297.437338,51.3440026 296.584,50.832 C295.730662,50.3199974 294.99467,49.7546698 294.376,49.136 C293.75733,48.5173302 293.256002,47.9520026 292.872,47.44 L292.872,55.504 L297.288,55.504 L297.288,66 Z M300.296,30.8 C300.296,29.3493261 299.98667,28.3040032 299.368,27.664 C298.74933,27.0239968 297.82134,26.704 296.584,26.704 C295.34666,26.704 294.41867,27.0239968 293.8,27.664 C293.18133,28.3040032 292.872,29.3493261 292.872,30.8 L292.872,37.2 C292.872,38.6506739 293.18133,39.6959968 293.8,40.336 C294.41867,40.9760032 295.34666,41.296 296.584,41.296 C297.82134,41.296 298.74933,40.9760032 299.368,40.336 C299.98667,39.6959968 300.296,38.6506739 300.296,37.2 L300.296,30.8 Z M320.92,41.808 C324.120016,42.2773357 326.74399,42.5866659 328.792,42.736 C330.84001,42.8853341 332.461327,42.96 333.656,42.96 C335.533343,42.96 336.770664,42.8106682 337.368,42.512 C337.965336,42.2133318 338.264,41.8080026 338.264,41.296 C338.264,40.7413306 337.944003,40.3253347 337.304,40.048 C336.663997,39.7706653 335.341343,39.4826682 333.336,39.184 C328.898644,38.5866637 325.410679,37.3066765 322.872,35.344 C320.333321,33.3813235 319.064,30.6080179 319.064,27.024 C319.064,25.3599917 319.362664,23.8133405 319.96,22.384 C320.557336,20.9546595 321.517327,19.7173386 322.84,18.672 C324.162673,17.6266614 325.858656,16.8053363 327.928,16.208 C329.997344,15.6106637 332.482652,15.312 335.384,15.312 C338.541349,15.312 341.389321,15.4933315 343.928,15.856 C346.466679,16.2186685 348.567992,16.6773306 350.232,17.232 L350.232,25.872 C348.18399,25.6159987 346.114677,25.4026675 344.024,25.232 C341.933323,25.0613325 339.949343,24.976 338.072,24.976 C336.279991,24.976 335.01067,25.1039987 334.264,25.36 C333.51733,25.6160013 333.144,25.9999974 333.144,26.512 C333.144,26.7680013 333.207999,26.991999 333.336,27.184 C333.464001,27.376001 333.709332,27.5466659 334.072,27.696 C334.434668,27.8453341 334.935997,27.9733328 335.576,28.08 C336.216003,28.1866672 337.026662,28.2826662 338.008,28.368 C342.957358,28.8373357 346.605322,30.0533235 348.952,32.016 C351.298678,33.9786765 352.472,36.7733152 352.472,40.4 C352.472,44.1973523 351.17068,47.1946557 348.568,49.392 C345.96532,51.5893443 341.890694,52.688 336.344,52.688 C333.101317,52.688 330.14668,52.4960019 327.48,52.112 C324.81332,51.7279981 322.626675,51.2586694 320.92,50.704 L320.92,41.808 Z" id="-Tips" fill="#F4F4F4"></path>
            <polygon id="Path-Copy-3" fill="#F3F3F3" points="250 87 261.776 87 261.776 97.688 250 97.688"></polygon>
            <polygon id="Path-Copy-2" fill="#F3F3F3" points="304 87 315.776 87 315.776 97.688 304 97.688"></polygon>
            <rect id="Rectangle-3" fill="#16A085" x="86" y="69" width="73" height="28.6327515"></rect>
            <rect id="Rectangle-3-Copy" fill="#4B6F94" x="1" y="69" width="73" height="28.6327515"></rect>
            <rect id="Rectangle-3-Copy-2" fill="#8E44AD" x="171" y="69" width="73" height="28.6327515"></rect>
            <path d="M269.125,91.3125 L269.125,84.09375 C269.125,80.9270675 269.67187,78.6666734 270.765625,77.3125 C271.85938,75.9583266 273.697904,75.28125 276.28125,75.28125 C278.291677,75.28125 279.927077,75.8124947 281.1875,76.875 C282.447923,77.9375053 283.078125,79.4010323 283.078125,81.265625 L283.078125,85.265625 L277.375,85.265625 L277.375,81.5625 C277.375,80.9791637 277.289063,80.5130226 277.117188,80.1640625 C276.945312,79.8151024 276.614586,79.640625 276.125,79.640625 C275.208329,79.640625 274.75,80.2916602 274.75,81.59375 L274.75,92.953125 C274.75,93.4322941 274.854166,93.8723938 275.0625,94.2734375 C275.270834,94.6744812 275.614581,94.875 276.09375,94.875 C276.229167,94.875 276.361979,94.8489586 276.492188,94.796875 C276.622396,94.7447914 276.76302,94.6562506 276.914062,94.53125 C277.065105,94.4062494 277.184895,94.2057305 277.273438,93.9296875 C277.36198,93.6536445 277.40625,93.3177103 277.40625,92.921875 L277.375,89.40625 L283.078125,89.40625 L283.078125,93.078125 C283.078125,95.005218 282.455735,96.5208278 281.210938,97.625 C279.96614,98.7291722 278.348968,99.28125 276.359375,99.28125 C275.442704,99.28125 274.614587,99.1927092 273.875,99.015625 C273.135413,98.8385408 272.518232,98.6067723 272.023438,98.3203125 C271.528643,98.0338527 271.09896,97.6718772 270.734375,97.234375 C270.36979,96.7968728 270.085939,96.3593772 269.882812,95.921875 C269.679686,95.4843728 269.51823,94.9817737 269.398438,94.4140625 C269.278645,93.8463513 269.203125,93.3307315 269.171875,92.8671875 C269.140625,92.4036435 269.125,91.8854195 269.125,91.3125 L269.125,91.3125 Z M291.84375,99.28125 C287.17706,99.28125 284.84375,96.8489827 284.84375,91.984375 L284.84375,82.578125 C284.84375,80.3385305 285.468744,78.5625066 286.71875,77.25 C287.968756,75.9374934 289.677073,75.28125 291.84375,75.28125 C294.020844,75.28125 295.734369,75.9374934 296.984375,77.25 C298.234381,78.5625066 298.859375,80.3385305 298.859375,82.578125 L298.859375,91.984375 C298.859375,94.4323039 298.263027,96.2604106 297.070312,97.46875 C295.877598,98.6770894 294.135428,99.28125 291.84375,99.28125 L291.84375,99.28125 Z M290.53125,81.6875 L290.53125,93.140625 C290.53125,93.7656281 290.653645,94.2213527 290.898438,94.5078125 C291.14323,94.7942723 291.458331,94.9375 291.84375,94.9375 C292.229169,94.9375 292.54427,94.7942723 292.789062,94.5078125 C293.033855,94.2213527 293.15625,93.7656281 293.15625,93.140625 L293.15625,81.6875 C293.15625,80.3229098 292.718754,79.640625 291.84375,79.640625 C290.968746,79.640625 290.53125,80.3229098 290.53125,81.6875 L290.53125,81.6875 Z" id="co" fill="#F3F3F3"></path>
        </g>
    </g>
</svg>